<?xml version="1.0" standalone="no"?>
<!DOCTYPE svg PUBLIC "-//W3C//DTD SVG 20010904//EN"
 "http://www.w3.org/TR/2001/REC-SVG-20010904/DTD/svg10.dtd">
<svg version="1.0" xmlns="http://www.w3.org/2000/svg"
 width="700.000000pt" height="700.000000pt" viewBox="0 0 700.000000 700.000000"
 preserveAspectRatio="xMidYMid meet">
<metadata>
Created by potrace 1.14, written by Peter Selinger 2001-2017
</metadata>
<g transform="translate(0.000000,700.000000) scale(0.100000,-0.100000)"
fill="#000000" stroke="none">
<path d="M3379 6919 c-63 -45 -142 -103 -176 -128 -34 -25 -114 -84 -178 -131
-64 -47 -158 -115 -209 -152 -50 -37 -100 -74 -111 -82 -74 -53 -312 -228
-370 -271 -38 -28 -187 -137 -330 -241 -300 -220 -1130 -827 -1478 -1082 -131
-96 -245 -185 -253 -198 -22 -33 -29 -96 -14 -125 29 -55 444 -611 468 -627
16 -10 45 -17 73 -17 40 1 57 8 119 54 40 29 75 50 78 47 3 -3 6 -876 6 -1940
l1 -1935 21 -28 c11 -15 36 -36 55 -45 32 -17 170 -18 2459 -18 2330 0 2427 1
2459 18 19 10 43 34 53 53 17 32 18 114 18 1968 0 1910 0 1933 19 1920 120
-85 132 -92 170 -94 57 -3 98 21 145 85 22 32 49 68 59 81 168 227 341 468
347 484 11 28 2 92 -16 120 -9 13 -131 108 -272 211 -141 104 -450 330 -687
503 -236 173 -533 390 -660 482 -126 93 -234 172 -240 176 -17 14 -628 462
-837 613 -57 41 -107 78 -113 83 -5 4 -89 66 -185 136 -271 198 -260 196 -421
80z m404 -407 c133 -98 386 -283 562 -412 176 -129 394 -288 485 -355 91 -67
275 -202 410 -300 135 -98 286 -208 335 -245 50 -37 186 -137 303 -223 118
-85 224 -163 235 -171 42 -31 194 -142 285 -208 l92 -68 -123 -167 c-68 -93
-127 -167 -131 -166 -8 1 -114 79 -1561 1138 -981 719 -1087 795 -1099 796 -6
0 -22 3 -36 5 -15 2 -44 -6 -69 -18 -34 -19 -527 -376 -1126 -818 -49 -37
-369 -270 -710 -520 -341 -249 -662 -484 -714 -522 l-94 -69 -52 73 c-29 40
-84 116 -123 168 -51 70 -67 98 -60 107 6 7 40 34 77 60 36 26 71 51 76 56 6
4 92 67 191 140 100 73 192 140 205 150 13 9 175 128 359 262 184 135 388 285
454 333 65 48 135 99 155 113 61 44 1190 870 1306 957 61 45 113 81 118 82 4
0 116 -80 250 -178z m-35 -838 c108 -79 301 -220 427 -312 127 -93 401 -294
610 -447 209 -153 450 -329 535 -391 85 -63 227 -167 315 -231 l160 -118 1
-1683 1 -1682 -36 -1 c-20 0 -756 -1 -1636 -2 -1533 -2 -1601 -3 -1630 -20
-87 -53 -87 -181 -1 -233 30 -18 83 -19 1656 -21 894 -1 1630 -2 1636 -2 10
-1 18 -208 8 -241 -4 -14 -234 -16 -2259 -16 -1240 0 -2255 2 -2256 5 -1 3 -2
857 -3 1896 l-1 1890 1620 5 c1778 5 1659 1 1696 65 40 70 21 151 -43 190 -32
19 -65 20 -1536 20 l-1503 0 24 20 c13 11 62 47 108 81 46 34 347 254 669 489
322 236 641 469 710 519 69 50 132 96 140 103 88 71 375 271 382 267 5 -4 98
-71 206 -150z"/>
<path d="M4945 4340 c-47 -10 -74 -32 -95 -75 -45 -92 24 -197 125 -191 99 6
155 91 120 182 -24 62 -87 98 -150 84z"/>
<path d="M2238 3865 c-2 -2 -21 -5 -43 -8 -194 -28 -353 -208 -357 -406 -2
-67 10 -253 17 -281 2 -8 6 -44 10 -80 3 -36 7 -77 10 -90 3 -14 8 -45 11 -70
3 -25 8 -54 10 -65 2 -11 7 -33 9 -50 3 -16 12 -62 21 -101 22 -103 22 -105 7
-149 -29 -78 -55 -184 -73 -290 -11 -68 -11 -239 1 -300 5 -27 12 -62 14 -76
11 -59 59 -189 97 -261 180 -338 535 -572 933 -614 123 -13 1210 -8 1300 6
277 42 492 148 681 335 179 177 284 375 318 603 13 86 14 255 1 322 -13 73
-44 198 -65 257 -19 56 -20 63 -6 130 24 112 65 362 72 438 3 39 8 79 10 90 3
11 7 79 10 151 5 106 3 141 -10 190 -42 144 -137 244 -282 295 -87 31 -184 27
-319 -11 -176 -49 -372 -116 -525 -178 l-141 -58 -84 17 c-135 27 -377 39
-500 24 -82 -10 -181 -26 -215 -33 -28 -7 -47 -3 -95 19 -148 66 -459 172
-640 218 -71 18 -170 33 -177 26z m178 -309 c202 -58 342 -108 556 -197 123
-52 123 -52 228 -27 183 42 455 45 630 7 150 -32 143 -33 274 23 192 81 329
128 638 220 73 22 145 -3 192 -65 29 -39 26 -178 -10 -447 -3 -25 -7 -58 -10
-75 -5 -38 -6 -46 -45 -244 l-33 -164 32 -91 c41 -118 59 -194 69 -281 9 -85
9 -73 0 -165 -33 -367 -341 -674 -747 -747 -25 -4 -326 -8 -670 -8 l-625 0
-90 24 c-242 64 -443 205 -563 396 -25 41 -71 143 -87 196 -50 169 -35 372 47
593 16 44 27 91 24 105 -2 14 -13 71 -25 126 -11 55 -23 114 -25 130 -3 17 -8
41 -11 55 -5 27 -7 37 -24 170 -42 316 -39 402 12 452 29 27 75 47 113 48 16
0 84 -15 150 -34z"/>
<path d="M2695 2622 c-164 -73 -199 -96 -221 -140 -29 -57 -18 -113 31 -159
51 -48 95 -47 204 3 41 19 79 34 86 34 7 0 47 -16 89 -35 48 -22 93 -35 118
-35 102 0 161 100 115 192 -20 39 -32 48 -142 102 -147 72 -191 78 -280 38z"/>
<path d="M4115 2595 c-131 -60 -170 -93 -181 -151 -5 -30 -2 -47 16 -82 44
-82 106 -91 237 -35 l85 36 51 -23 c147 -65 187 -68 242 -16 68 64 56 169 -26
216 -91 53 -230 110 -267 110 -23 0 -81 -20 -157 -55z"/>
<path d="M3496 2165 c-21 -7 -48 -23 -61 -35 -23 -22 -28 -36 -40 -110 -11
-68 -43 -96 -117 -106 -92 -13 -146 -77 -134 -159 8 -52 54 -102 102 -111 73
-14 182 15 255 67 l30 21 67 -35 c172 -89 311 -60 325 69 8 78 -40 137 -124
150 -24 4 -56 14 -71 22 -30 17 -58 67 -58 101 0 88 -92 154 -174 126z"/>
<path d="M2013 790 c-70 -31 -96 -107 -61 -179 60 -123 242 -88 253 49 8 104
-94 174 -192 130z"/>
</g>
</svg>
